<mxfile host="app.diagrams.net" agent="Mozilla/5.0 (Windows NT 10.0; Win64; x64) AppleWebKit/537.36 (KHTML, like Gecko) Chrome/128.0.0.0 Safari/537.36" version="24.7.8">
  <diagram name="Page-1" id="FahgzHfjmpABUc2r4rrM">
    <mxGraphModel dx="794" dy="446" grid="1" gridSize="10" guides="1" tooltips="1" connect="1" arrows="1" fold="1" page="1" pageScale="1" pageWidth="827" pageHeight="1169" math="0" shadow="0">
      <root>
        <mxCell id="0" />
        <mxCell id="1" parent="0" />
        <mxCell id="S9Wzf-nc2V11ZMaVpYL8-22" value="" style="edgeStyle=orthogonalEdgeStyle;rounded=0;orthogonalLoop=1;jettySize=auto;html=1;" edge="1" parent="1" source="S9Wzf-nc2V11ZMaVpYL8-1" target="S9Wzf-nc2V11ZMaVpYL8-4">
          <mxGeometry relative="1" as="geometry" />
        </mxCell>
        <mxCell id="S9Wzf-nc2V11ZMaVpYL8-1" value="START" style="rounded=1;whiteSpace=wrap;html=1;" vertex="1" parent="1">
          <mxGeometry x="190" width="120" height="60" as="geometry" />
        </mxCell>
        <mxCell id="S9Wzf-nc2V11ZMaVpYL8-2" value="END" style="rounded=1;whiteSpace=wrap;html=1;" vertex="1" parent="1">
          <mxGeometry x="190" y="490" width="120" height="60" as="geometry" />
        </mxCell>
        <mxCell id="S9Wzf-nc2V11ZMaVpYL8-4" value="x(int) &quot;enter a number&quot;" style="shape=card;whiteSpace=wrap;html=1;" vertex="1" parent="1">
          <mxGeometry x="155" y="90" width="155" height="60" as="geometry" />
        </mxCell>
        <mxCell id="S9Wzf-nc2V11ZMaVpYL8-23" value="" style="edgeStyle=orthogonalEdgeStyle;rounded=0;orthogonalLoop=1;jettySize=auto;html=1;" edge="1" parent="1" source="S9Wzf-nc2V11ZMaVpYL8-5" target="S9Wzf-nc2V11ZMaVpYL8-6">
          <mxGeometry relative="1" as="geometry" />
        </mxCell>
        <mxCell id="S9Wzf-nc2V11ZMaVpYL8-5" value="y(int) &quot;enter a number&quot;" style="shape=card;whiteSpace=wrap;html=1;" vertex="1" parent="1">
          <mxGeometry x="145" y="180" width="165" height="60" as="geometry" />
        </mxCell>
        <mxCell id="S9Wzf-nc2V11ZMaVpYL8-6" value="x &amp;gt; y" style="rhombus;whiteSpace=wrap;html=1;" vertex="1" parent="1">
          <mxGeometry x="200" y="270" width="80" height="80" as="geometry" />
        </mxCell>
        <mxCell id="S9Wzf-nc2V11ZMaVpYL8-7" value="" style="endArrow=classic;html=1;rounded=0;" edge="1" parent="1">
          <mxGeometry width="50" height="50" relative="1" as="geometry">
            <mxPoint x="290" y="320" as="sourcePoint" />
            <mxPoint x="360" y="370" as="targetPoint" />
          </mxGeometry>
        </mxCell>
        <mxCell id="S9Wzf-nc2V11ZMaVpYL8-9" value="yes" style="edgeLabel;html=1;align=center;verticalAlign=middle;resizable=0;points=[];" vertex="1" connectable="0" parent="S9Wzf-nc2V11ZMaVpYL8-7">
          <mxGeometry x="-0.1811" y="1" relative="1" as="geometry">
            <mxPoint as="offset" />
          </mxGeometry>
        </mxCell>
        <mxCell id="S9Wzf-nc2V11ZMaVpYL8-8" value="" style="endArrow=classic;html=1;rounded=0;" edge="1" parent="1">
          <mxGeometry width="50" height="50" relative="1" as="geometry">
            <mxPoint x="190" y="330" as="sourcePoint" />
            <mxPoint x="140" y="360" as="targetPoint" />
          </mxGeometry>
        </mxCell>
        <mxCell id="S9Wzf-nc2V11ZMaVpYL8-10" value="no" style="edgeLabel;html=1;align=center;verticalAlign=middle;resizable=0;points=[];" vertex="1" connectable="0" parent="S9Wzf-nc2V11ZMaVpYL8-8">
          <mxGeometry x="-0.4529" y="3" relative="1" as="geometry">
            <mxPoint as="offset" />
          </mxGeometry>
        </mxCell>
        <mxCell id="S9Wzf-nc2V11ZMaVpYL8-11" value="print(x)" style="shape=document;whiteSpace=wrap;html=1;boundedLbl=1;" vertex="1" parent="1">
          <mxGeometry x="70" y="370" width="120" height="80" as="geometry" />
        </mxCell>
        <mxCell id="S9Wzf-nc2V11ZMaVpYL8-12" value="print(y)" style="shape=document;whiteSpace=wrap;html=1;boundedLbl=1;" vertex="1" parent="1">
          <mxGeometry x="310" y="370" width="120" height="80" as="geometry" />
        </mxCell>
        <mxCell id="S9Wzf-nc2V11ZMaVpYL8-13" value="" style="endArrow=classic;html=1;rounded=0;" edge="1" parent="1">
          <mxGeometry width="50" height="50" relative="1" as="geometry">
            <mxPoint x="370" y="450" as="sourcePoint" />
            <mxPoint x="310" y="510" as="targetPoint" />
          </mxGeometry>
        </mxCell>
        <mxCell id="S9Wzf-nc2V11ZMaVpYL8-16" value="" style="endArrow=classic;html=1;rounded=0;" edge="1" parent="1">
          <mxGeometry width="50" height="50" relative="1" as="geometry">
            <mxPoint x="110" y="450" as="sourcePoint" />
            <mxPoint x="185" y="500" as="targetPoint" />
          </mxGeometry>
        </mxCell>
        <mxCell id="S9Wzf-nc2V11ZMaVpYL8-17" value="" style="endArrow=classic;html=1;rounded=0;entryX=0.465;entryY=0.056;entryDx=0;entryDy=0;entryPerimeter=0;exitX=0.434;exitY=1.117;exitDx=0;exitDy=0;exitPerimeter=0;" edge="1" parent="1" source="S9Wzf-nc2V11ZMaVpYL8-4" target="S9Wzf-nc2V11ZMaVpYL8-5">
          <mxGeometry width="50" height="50" relative="1" as="geometry">
            <mxPoint x="200" y="120" as="sourcePoint" />
            <mxPoint x="250" y="70" as="targetPoint" />
          </mxGeometry>
        </mxCell>
      </root>
    </mxGraphModel>
  </diagram>
</mxfile>
